#N canvas 0 53 1366 715 10;
#X obj 565 14 udpreceive 9000;
#X obj 565 44 unpackOSC;
#X floatatom 304 227 5 0 0 0 - - -, f 5;
#X obj 389 269 *~;
#X obj 432 183 vsl 15 70 0 1 0 0 empty empty empty 0 -9 0 10 -262144
-1 -1 6900 1;
#X obj 391 500 *~ 0.5;
#X obj 391 612 *~;
#X obj 406 527 vsl 15 70 0 1 0 0 empty empty empty 0 -9 0 10 -262144
-1 -1 6900 1;
#X obj 382 663 dac~;
#X obj 369 209 adc~;
#X text 423 587 Volume uscita;
#X text 449 209 Volume ingresso;
#X text 452 149 Il messaggio è "/fuzz";
#X text 664 7 La patch si pone in ascolto di pacchetti UDP sulla porta
9000;
#X text 643 43 Viene decodificato il pacchetto OSC;
#X text 710 71 Si analizza l'address space;
#X obj 1061 369 hsl 36 24 0 1 0 0 empty empty empty -2 -8 0 10 -262144
-1 -1 0 1;
#X obj 893 370 hsl 128 15 0 1 0 0 empty empty empty -2 -8 0 10 -262144
-1 -1 0 1;
#X text 888 350 dry;
#X text 1000 349 wet;
#X obj 391 406 *~;
#X obj 532 430 *~;
#X obj 565 96 routeOSC /fuzz /delay /reverb;
#X text 905 144 Il messaggio e' "/reverb";
#X obj 565 73 routeOSC /kinect /app;
#N canvas 0 53 1366 715 fuzz 0;
#X obj 265 160 clip~ -0.5 0.5;
#X obj 266 110 *~ 50;
#X obj 265 75 *~;
#X text 82 110 Il segnale viene amplificato;
#X obj 266 22 inlet~;
#X obj 317 23 inlet;
#X text 40 155 Viene effettuato un taglio di band per generare distorsione
;
#X obj 265 213 outlet~;
#X connect 0 0 7 0;
#X connect 1 0 0 0;
#X connect 2 0 1 0;
#X connect 4 0 2 0;
#X connect 5 0 2 1;
#X restore 265 373 pd fuzz;
#N canvas 0 81 683 687 not 0;
#X obj 143 87 t b f;
#X msg 143 108 1;
#X obj 143 129 -;
#X obj 143 55 inlet;
#X obj 143 163 outlet;
#X connect 0 0 1 0;
#X connect 0 1 2 1;
#X connect 1 0 2 0;
#X connect 2 0 4 0;
#X connect 3 0 0 0;
#X restore 344 386 pd not;
#N canvas 0 81 450 300 not 0;
#X obj 143 87 t b f;
#X msg 143 108 1;
#X obj 143 129 -;
#X obj 143 55 inlet;
#X obj 143 163 outlet;
#X connect 0 0 1 0;
#X connect 0 1 2 1;
#X connect 1 0 2 0;
#X connect 2 0 4 0;
#X connect 3 0 0 0;
#X restore 429 387 pd not;
#N canvas 735 203 450 300 unpack_dry_wet 0;
#X obj 25 110 bng 15 250 50 0 empty empty empty 17 7 0 10 -262144 -1
-1;
#X obj 25 85 metro 50;
#X obj 25 64 tgl 15 0 empty empty empty 17 7 0 10 -262144 -1 -1 0 1
;
#X floatatom 95 153 5 0 1000 0 - - -, f 5;
#X obj 95 233 scale 25 70 0 1 0;
#X obj 132 31 inlet;
#X obj 95 254 outlet;
#X text 50 111 measure;
#X obj 132 67 unpack f;
#X connect 0 0 3 0;
#X connect 1 0 0 0;
#X connect 2 0 1 0;
#X connect 3 0 4 0;
#X connect 4 0 6 0;
#X connect 5 0 8 0;
#X connect 8 0 3 0;
#X restore 890 229 pd unpack_dry_wet;
#N canvas 0 53 1366 715 unpack_roomsize 0;
#X obj 221 132 unpack f f;
#X obj 221 100 inlet;
#X obj 221 230 outlet;
#X obj 221 195 scale 15 45 0 1 0;
#X connect 0 0 3 0;
#X connect 1 0 0 0;
#X connect 3 0 2 0;
#X restore 1058 243 pd unpack_roomsize;
#X floatatom 890 267 5 0 0 0 - - -, f 5;
#X obj 393 150 unpack f;
#X obj 899 163 routeOSC /control /dry_wet /roomsize;
#N canvas 0 53 1366 715 reverb 0;
#X obj 142 351 freeverb~;
#X msg 309 318 roomsize \$1;
#X msg 316 154 wet \$1;
#X msg 414 209 dry \$1;
#X obj 414 146 t b f;
#X msg 414 167 1;
#X obj 414 188 -;
#X floatatom 362 209 5 0 0 0 - - -, f 5;
#X text 792 121 Dimensione della stanza (tra 0 e 1) da simulare. Piu'
alto il valore \, piu' lungo sara' il riverbero.;
#X text 27 33 Bilancio tra il segnale di ingresso (dry) e il segnale
risultante del riverbero (wet).;
#X obj 141 187 inlet~;
#X obj 139 470 outlet~;
#X obj 363 38 inlet;
#X obj 745 134 inlet, f 56;
#X connect 0 0 11 0;
#X connect 0 1 11 0;
#X connect 1 0 0 0;
#X connect 2 0 0 0;
#X connect 3 0 0 0;
#X connect 4 0 5 0;
#X connect 4 1 6 1;
#X connect 5 0 6 0;
#X connect 6 0 3 0;
#X connect 6 0 7 0;
#X connect 10 0 0 0;
#X connect 10 0 0 1;
#X connect 12 0 2 0;
#X connect 12 0 4 0;
#X connect 13 0 1 0;
#X restore 542 457 pd reverb;
#X obj 790 272 unpack f;
#X floatatom 790 300 5 0 0 0 - - -, f 5;
#N canvas 0 53 1366 715 feedback_delay 0;
#X obj 384 337 *~ 0.5;
#X text 510 370 Buffer di scrittura;
#X text 505 220 Buffer di lettura;
#X obj 314 336 inlet~;
#X obj 304 290 outlet~;
#X obj 384 379 delwrite~ delay 1000;
#X text 433 339 feedback;
#X obj 383 218 vd~ delay;
#X obj 383 178 inlet;
#X obj 417 290 inlet;
#X connect 0 0 5 0;
#X connect 3 0 5 0;
#X connect 7 0 0 0;
#X connect 7 0 4 0;
#X connect 8 0 7 0;
#X connect 9 0 0 1;
#X restore 527 374 pd feedback_delay;
#X text 618 315 Ritardo (in ms);
#X msg 586 318 300;
#X obj 717 233 vsl 15 60 0 1 0 0 empty empty empty 0 -9 0 10 -262144
-1 -1 0 1;
#X obj 622 146 routeOSC /control /feedback;
#X obj 622 188 unpack f;
#X floatatom 622 215 5 0 0 0 - - -, f 5;
#X obj 530 345 *~;
#X floatatom 718 196 5 0 0 0 - - -, f 5;
#X text 1101 376 roomsize;
#X text 660 282 feedback;
#X floatatom 1058 264 5 0 0 0 - - -, f 5;
#N canvas 0 81 450 300 unpack_delay 0;
#X obj 140 53 unpack f;
#X obj 140 25 inlet;
#X obj 140 109 outlet;
#X obj 140 81 scale 60 90 0 1 0;
#X connect 0 0 3 0;
#X connect 1 0 0 0;
#X connect 3 0 2 0;
#X restore 717 172 pd unpack_delay;
#X connect 0 0 1 0;
#X connect 1 0 24 0;
#X connect 2 0 25 1;
#X connect 2 0 26 0;
#X connect 3 0 20 0;
#X connect 3 0 21 0;
#X connect 3 0 25 0;
#X connect 3 0 43 0;
#X connect 4 0 3 1;
#X connect 5 0 6 0;
#X connect 6 0 8 0;
#X connect 6 0 8 1;
#X connect 7 0 6 1;
#X connect 9 1 3 0;
#X connect 16 0 33 2;
#X connect 17 0 33 1;
#X connect 20 0 5 0;
#X connect 21 0 33 0;
#X connect 22 0 31 0;
#X connect 22 1 40 0;
#X connect 22 2 32 0;
#X connect 24 0 22 0;
#X connect 25 0 5 0;
#X connect 26 0 20 1;
#X connect 27 0 20 1;
#X connect 28 0 30 0;
#X connect 29 0 47 0;
#X connect 30 0 17 0;
#X connect 31 0 2 0;
#X connect 32 0 34 0;
#X connect 32 1 28 0;
#X connect 32 2 29 0;
#X connect 33 0 5 0;
#X connect 34 0 35 0;
#X connect 35 0 27 0;
#X connect 35 0 21 1;
#X connect 36 0 5 0;
#X connect 38 0 36 1;
#X connect 39 0 36 2;
#X connect 40 0 41 0;
#X connect 40 1 48 0;
#X connect 41 0 42 0;
#X connect 42 0 43 1;
#X connect 43 0 36 0;
#X connect 44 0 39 0;
#X connect 47 0 16 0;
#X connect 48 0 44 0;
